# Blender 4.4.3
# www.blender.org
mtllib Cage.mtl
o Cube
v 1.000000 1.000000 -1.000000
v 1.000000 -1.000000 -1.000000
v 1.000000 1.000000 1.000000
v 1.000000 -1.000000 1.000000
v 0.980726 -0.945497 0.981483
v -1.000000 1.000000 -1.000000
v -1.000000 -1.000000 -1.000000
v -1.000000 1.000000 1.000000
v -1.000000 -1.000000 1.000000
v -0.980726 -0.945497 0.981483
v -1.000000 -0.980726 0.980726
v -1.000000 0.980726 -0.980726
v -1.000000 0.980726 0.980726
v -1.000000 -0.980726 -0.980726
v 1.000000 -0.980726 -0.980726
v 1.000000 0.980726 0.980726
v 1.000000 0.980726 -0.980726
v 1.000000 -0.980726 0.980726
v 0.980726 -0.980726 1.000000
v -0.980726 0.980726 1.000000
v 0.980726 0.980726 1.000000
v -0.980726 -0.980726 1.000000
v -0.980726 -0.980726 -1.000000
v 0.980726 0.980726 -1.000000
v -0.980726 0.980726 -1.000000
v 0.980726 -0.980726 -1.000000
v -0.980726 -0.980726 0.980726
v 0.980726 -0.980726 0.980726
v 0.716193 -0.980726 0.980726
v -0.980726 0.980726 0.980726
v 0.980726 0.980726 0.980726
v -0.980726 -0.980726 -0.980726
v 0.980726 -0.980726 -0.980726
v 0.477683 0.980726 -0.980726
v -0.980726 0.980726 -0.980726
v 0.980726 0.980726 -0.980726
v 0.980726 -0.980726 0.961823
v -0.980726 1.000000 -0.979968
v -0.980726 1.000000 0.981483
v 0.980726 1.000000 0.981483
v 0.980726 1.000000 -0.979968
v 0.980726 0.980726 -0.979968
v -0.980726 0.980726 -0.979968
v 0.477222 0.980726 -0.979968
v -0.980726 -0.945497 0.980726
v 0.980726 -0.945497 0.980726
v 0.980726 0.980726 0.981483
v -0.980726 0.980726 0.981483
vn -0.0000 1.0000 -0.0000
vn -0.0000 -0.0000 1.0000
vn -1.0000 -0.0000 -0.0000
vn -0.0000 -1.0000 -0.0000
vn 1.0000 -0.0000 -0.0000
vn -0.0000 -0.0000 -1.0000
vt 0.872591 0.747685
vt 0.875000 0.750000
vt 0.625000 0.750000
vt 0.627409 0.747685
vt 0.625000 0.500000
vt 0.875000 0.500000
vt 0.872591 0.502504
vt 0.627409 0.502504
vt 0.377409 0.752409
vt 0.375000 0.750000
vt 0.625000 1.000000
vt 0.375000 1.000000
vt 0.377409 0.997591
vt 0.622591 0.997591
vt 0.622591 0.752409
vt 0.622591 0.247591
vt 0.622591 0.002409
vt 0.625000 0.000000
vt 0.625000 0.250000
vt 0.375000 0.250000
vt 0.377409 0.247591
vt 0.377409 0.002409
vt 0.375000 0.000000
vt 0.125000 0.500000
vt 0.375000 0.500000
vt 0.125000 0.750000
vt 0.622591 0.502409
vt 0.377409 0.502409
vt 0.377409 0.747591
vt 0.622591 0.747591
vt 0.622591 0.497591
vt 0.622591 0.252409
vt 0.377409 0.497591
vt 0.377409 0.252409
vt 0.672160 0.500000
vt 0.670630 0.500000
vt 0.670630 0.750000
vt 0.672160 0.750000
vt 0.672160 0.500097
vt 0.829370 0.750000
vt 0.829370 0.500000
vt 0.827840 0.500000
vt 0.827840 0.500097
vt 0.827840 0.750000
vt 0.712123 0.500097
vt 0.712086 0.500000
vt 0.625000 0.954370
vt 0.625000 0.952840
vt 0.379490 0.952840
vt 0.375000 0.952840
vt 0.375000 0.954370
vt 0.625000 0.795630
vt 0.375000 0.795630
vt 0.375000 0.797160
vt 0.379490 0.797160
vt 0.625000 0.797160
vt 0.327840 0.750000
vt 0.329370 0.750000
vt 0.329370 0.500000
vt 0.327840 0.500000
vt 0.327840 0.747591
vt 0.172160 0.500000
vt 0.170630 0.500000
vt 0.170630 0.750000
vt 0.172160 0.750000
vt 0.375000 0.452840
vt 0.375000 0.454370
vt 0.625000 0.454370
vt 0.625000 0.452840
vt 0.625000 0.295630
vt 0.375000 0.295630
vt 0.375000 0.297160
vt 0.625000 0.297160
vt 0.875000 0.564116
vt 0.875000 0.562621
vt 0.625000 0.562621
vt 0.625000 0.564116
vt 0.689116 0.564116
vt 0.625000 0.717779
vt 0.875000 0.717779
vt 0.875000 0.716342
vt 0.625000 0.716342
vt 0.625000 0.032221
vt 0.375000 0.032221
vt 0.375000 0.033716
vt 0.379490 0.033716
vt 0.379490 0.033658
vt 0.625000 0.033658
vt 0.625000 0.033716
vt 0.375000 0.185884
vt 0.375000 0.187379
vt 0.625000 0.187379
vt 0.625000 0.185884
vt 0.375000 0.564116
vt 0.375000 0.562621
vt 0.125000 0.562621
vt 0.125000 0.564116
vt 0.341284 0.716284
vt 0.125000 0.716284
vt 0.125000 0.717779
vt 0.375000 0.717779
vt 0.375000 0.716284
vt 0.379490 0.716342
vt 0.379490 0.716284
vt 0.625000 0.716284
vt 0.603724 1.000000
vt 0.603724 0.750000
vt 0.601458 0.750000
vt 0.601458 1.000000
vt 0.603724 0.000000
vt 0.601458 0.000000
vt 0.601458 0.000097
vt 0.601458 0.250000
vt 0.603724 0.250000
vt 0.603724 0.500000
vt 0.601458 0.500000
vt 0.601458 0.749903
vt 0.601458 0.435825
vt 0.306844 0.750000
s 0
usemtl Material
f 39/1/1 8/2/1 3/3/1 40/4/1
f 40/4/1 3/3/1 1/5/1 6/6/1 8/2/1 39/1/1 38/7/1 41/8/1
f 19/9/2 4/10/2 3/3/2 8/11/2 9/12/2 22/13/2 20/14/2 21/15/2
f 22/13/2 9/12/2 4/10/2 19/9/2
f 12/16/3 13/17/3 8/18/3 6/19/3 7/20/3 14/21/3
f 11/22/3 14/21/3 7/20/3 9/23/3 8/18/3 13/17/3
f 7/24/4 2/25/4 4/10/4 9/26/4
f 17/27/5 15/28/5 2/25/5 1/5/5 3/3/5 4/10/5 18/29/5 16/30/5
f 18/29/5 4/10/5 2/25/5 15/28/5
f 24/31/6 25/32/6 6/19/6 1/5/6 2/25/6 26/33/6
f 23/34/6 26/33/6 2/25/6 7/20/6 6/19/6 25/32/6
f 36/35/4 17/36/4 16/37/4 31/38/4 42/39/4
f 13/40/4 12/41/4 35/42/4 43/43/4 30/44/4
f 44/45/4 34/46/4 36/35/4 42/39/4
f 43/43/4 35/42/4 34/46/4 44/45/4
f 13/47/6 30/48/6 45/49/6 27/50/6 11/51/6
f 16/52/6 18/53/6 28/54/6 46/55/6 31/56/6
f 28/57/1 18/58/1 15/59/1 33/60/1 37/61/1
f 32/62/1 14/63/1 11/64/1 27/65/1
f 33/66/2 15/67/2 17/68/2 36/69/2
f 12/70/2 14/71/2 32/72/2 35/73/2
f 35/74/4 25/75/4 24/76/4 36/77/4 34/78/4
f 21/79/4 20/80/4 48/81/4 47/82/4
f 20/83/5 22/84/5 27/85/5 45/86/5 10/87/5 48/88/5
f 10/87/5 45/86/5 30/89/5 48/88/5
f 32/90/5 23/91/5 25/92/5 35/93/5
f 33/94/1 26/95/1 23/96/1 32/97/1
f 29/98/1 27/99/1 22/100/1 19/101/1 28/102/1
f 36/77/3 24/76/3 26/95/3 33/94/3
f 28/102/3 19/101/3 21/79/3 47/82/3 5/103/3 46/104/3
f 47/82/3 31/105/3 46/104/3 5/103/3
f 39/106/6 40/107/6 47/108/6 48/109/6
f 39/110/5 48/111/5 30/112/5 43/113/5 38/114/5
f 41/115/3 42/116/3 31/117/3 47/108/3 40/107/3
f 42/116/2 41/115/2 38/114/2 43/113/2 44/118/2
f 29/119/1 28/57/1 37/61/1 33/60/1 32/62/1 27/65/1
