# Blender 4.4.3
# www.blender.org
mtllib Scene Cube.mtl
o Cube.005
v 0.980726 0.980726 -1.894764
v 0.980726 -0.980726 -1.894764
v -0.980726 0.980726 -1.894764
v -0.980726 -0.980726 -1.894764
vn -0.0000 -0.0000 1.0000
vt 0.375000 0.750000
vt 0.625000 0.750000
vt 0.625000 1.000000
vt 0.375000 1.000000
s 0
usemtl Material.002
f 2/1/1 1/2/1 3/3/1 4/4/1
o Cube.006
v -0.980726 0.980726 -3.856216
v -0.980726 -0.980726 -3.856216
v -0.980726 0.980726 -1.894764
v -0.980726 -0.980726 -1.894764
vn -1.0000 -0.0000 -0.0000
vt 0.375000 0.000000
vt 0.625000 0.000000
vt 0.625000 0.250000
vt 0.375000 0.250000
s 0
usemtl Material.002
f 8/5/2 7/6/2 5/7/2 6/8/2
o Cube.007
v 0.980726 0.980726 -3.856216
v 0.980726 0.980726 -1.894764
v -0.980726 0.980726 -3.856216
v -0.980726 0.980726 -1.894764
vn -0.0000 1.0000 -0.0000
vt 0.625000 0.500000
vt 0.875000 0.500000
vt 0.875000 0.750000
vt 0.625000 0.750000
s 0
usemtl Material.002
f 9/9/3 11/10/3 12/11/3 10/12/3
o Cube.008
v 0.980726 0.980726 -3.856216
v 0.980726 -0.980726 -3.856216
v -0.980726 0.980726 -3.856216
v -0.980726 -0.980726 -3.856216
vn -0.0000 -0.0000 -1.0000
vt 0.375000 0.250000
vt 0.625000 0.250000
vt 0.625000 0.500000
vt 0.375000 0.500000
s 0
usemtl Material.002
f 16/13/4 15/14/4 13/15/4 14/16/4
o Cube.009
v 0.980726 0.980726 -3.856216
v 0.980726 -0.980726 -3.856216
v 0.980726 0.980726 -1.894764
v 0.980726 -0.980726 -1.894764
vn 1.0000 -0.0000 -0.0000
vt 0.375000 0.500000
vt 0.625000 0.500000
vt 0.625000 0.750000
vt 0.375000 0.750000
s 0
usemtl Material.002
f 18/17/5 17/18/5 19/19/5 20/20/5
o Cube.010
v 0.980726 -0.980726 -3.856216
v 0.980726 -0.980726 -1.894764
v -0.980726 -0.980726 -3.856216
v -0.980726 -0.980726 -1.894764
vn -0.0000 -1.0000 -0.0000
vt 0.125000 0.500000
vt 0.375000 0.500000
vt 0.375000 0.750000
vt 0.125000 0.750000
s 0
usemtl Material.002
f 23/21/6 21/22/6 22/23/6 24/24/6
